<svg width="28" height="28" viewBox="0 0 28 28" fill="none" xmlns="http://www.w3.org/2000/svg">
<path d="M27.7426 9.41203C27.5998 9.15989 27.4076 8.95498 27.1834 8.81584C26.9591 8.6767 26.7099 8.60772 26.4582 8.61513H6.35103C5.92677 8.63699 5.51582 8.80159 5.16395 9.09059C4.81207 9.37958 4.53308 9.78164 4.35803 10.252C4.35513 10.3022 4.35513 10.3526 4.35803 10.4028L1.77156 21.5378V2.15379H7.52025L9.83214 6.01982C9.9146 6.15702 10.0226 6.26854 10.1473 6.34528C10.272 6.42201 10.4099 6.46179 10.5496 6.46135H24.8018C24.8018 5.89013 24.6151 5.34231 24.2829 4.9384C23.9507 4.53448 23.5001 4.30757 23.0302 4.30757H11.0014L8.95521 0.883057C8.79029 0.608671 8.57431 0.385624 8.32491 0.232149C8.07551 0.0786735 7.79978 -0.000874389 7.52025 7.24921e-06H1.77156C1.30171 7.24921e-06 0.851108 0.226923 0.518877 0.630835C0.186645 1.03475 0 1.58257 0 2.15379V26.5884C0.0138288 26.976 0.152644 27.3413 0.386395 27.6053C0.620147 27.8694 0.930025 28.0108 1.24895 27.9991H23.3314C23.529 28.0087 23.7237 27.9376 23.8842 27.797C24.0447 27.6565 24.1619 27.4547 24.2172 27.2238L27.9286 10.9627C27.9978 10.7043 28.0171 10.4299 27.9848 10.1609C27.9525 9.89196 27.8696 9.63567 27.7426 9.41203ZM22.6316 25.8454H2.56876L6.00557 10.9735C6.08945 10.8421 6.20856 10.7507 6.34217 10.7151H26.1216L22.6316 25.8454Z" fill="#B2ACAC"/>
</svg>
