<svg width="35" height="35" viewBox="0 0 35 35" fill="none" xmlns="http://www.w3.org/2000/svg">
<path d="M17.5 7.5C16.2639 7.5 15.0555 7.86656 14.0277 8.55332C12.9999 9.24007 12.1988 10.2162 11.7258 11.3582C11.2527 12.5003 11.1289 13.7569 11.3701 14.9693C11.6113 16.1817 12.2065 17.2953 13.0806 18.1694C13.9547 19.0435 15.0683 19.6388 16.2807 19.8799C17.4931 20.1211 18.7497 19.9973 19.8918 19.5242C21.0338 19.0512 22.0099 18.2501 22.6967 17.2223C23.3834 16.1945 23.75 14.9861 23.75 13.75C23.75 12.0924 23.0915 10.5027 21.9194 9.33058C20.7473 8.15848 19.1576 7.5 17.5 7.5ZM17.5 17.5C16.7583 17.5 16.0333 17.2801 15.4166 16.868C14.7999 16.456 14.3193 15.8703 14.0355 15.1851C13.7516 14.4998 13.6774 13.7458 13.8221 13.0184C13.9668 12.291 14.3239 11.6228 14.8484 11.0983C15.3728 10.5739 16.041 10.2167 16.7684 10.0721C17.4958 9.92736 18.2498 10.0016 18.9351 10.2855C19.6203 10.5693 20.206 11.0499 20.618 11.6666C21.0301 12.2833 21.25 13.0083 21.25 13.75C21.249 14.7443 20.8536 15.6975 20.1506 16.4006C19.4475 17.1036 18.4943 17.499 17.5 17.5Z" fill="#404040"/>
<path d="M17.5 0C14.0388 0 10.6554 1.02636 7.77753 2.94928C4.89967 4.87221 2.65665 7.60533 1.33212 10.803C0.00758246 14.0007 -0.338976 17.5194 0.336265 20.9141C1.01151 24.3087 2.67822 27.4269 5.12564 29.8744C7.57306 32.3218 10.6913 33.9885 14.0859 34.6637C17.4806 35.339 20.9993 34.9924 24.197 33.6679C27.3947 32.3434 30.1278 30.1003 32.0507 27.2225C33.9737 24.3446 35 20.9612 35 17.5C34.9947 12.8603 33.1493 8.41222 29.8685 5.13148C26.5878 1.85074 22.1397 0.0052934 17.5 0ZM10 30.4713V28.75C10.001 27.7557 10.3964 26.8025 11.0995 26.0994C11.8025 25.3964 12.7558 25.001 13.75 25H21.25C22.2443 25.001 23.1975 25.3964 23.9006 26.0994C24.6036 26.8025 24.999 27.7557 25 28.75V30.4713C22.724 31.8003 20.1357 32.5006 17.5 32.5006C14.8644 32.5006 12.276 31.8003 10 30.4713ZM27.49 28.6575C27.4651 27.0179 26.7971 25.4537 25.6299 24.302C24.4627 23.1502 22.8898 22.5031 21.25 22.5H13.75C12.1102 22.5031 10.5373 23.1502 9.37012 24.302C8.20293 25.4537 7.53492 27.0179 7.51001 28.6575C5.24321 26.6334 3.64467 23.9686 2.92605 21.0158C2.20743 18.0631 2.40263 14.9617 3.48581 12.1223C4.56898 9.28297 6.48903 6.83958 8.99172 5.11571C11.4944 3.39183 14.4617 2.46878 17.5006 2.46878C20.5396 2.46878 23.5069 3.39183 26.0095 5.11571C28.5122 6.83958 30.4323 9.28297 31.5155 12.1223C32.5986 14.9617 32.7938 18.0631 32.0752 21.0158C31.3566 23.9686 29.7581 26.6334 27.4913 28.6575H27.49Z" fill="#404040"/>
</svg>
