<svg width="22" height="16" viewBox="0 0 22 16" fill="none" xmlns="http://www.w3.org/2000/svg">
<path d="M5.48593 12.4879C3.64093 11.3416 2.18093 9.85062 1.35593 8.90912C1.12523 8.64923 1 8.32952 1 8.00044C1 7.67136 1.12523 7.35165 1.35593 7.09175C2.84893 5.38637 6.43093 1.875 10.6129 1.875C12.4889 1.875 14.2429 2.58113 15.7429 3.51475" stroke="#404040" stroke-width="2" stroke-linecap="round" stroke-linejoin="round"/>
<path d="M12.7429 6.15112C12.4652 5.90408 12.1344 5.7076 11.7694 5.573C11.4045 5.4384 11.0127 5.36836 10.6167 5.36691C10.2207 5.36545 9.82828 5.43262 9.46208 5.56454C9.09588 5.69646 8.76315 5.89051 8.48309 6.13551C8.20302 6.38051 7.98117 6.6716 7.83032 6.99199C7.67947 7.31239 7.60261 7.65575 7.60418 8.00226C7.60575 8.34878 7.6857 8.69159 7.83944 9.01093C7.99318 9.33028 8.21766 9.61982 8.49993 9.86287" stroke="#404040" stroke-width="2" stroke-linecap="round" stroke-linejoin="round"/>
<path d="M2.61293 15L18.6129 1" stroke="#404040" stroke-width="2" stroke-linecap="round" stroke-linejoin="round"/>
<path d="M8.61293 13.866C9.26213 14.0351 9.93558 14.1223 10.6129 14.125C14.7949 14.125 18.3769 10.6136 19.8699 8.90825C20.1006 8.64812 20.2257 8.32821 20.2255 7.99898C20.2253 7.66974 20.0999 7.34994 19.8689 7.09C19.3442 6.49105 18.7813 5.91848 18.1829 5.375" stroke="#404040" stroke-width="2" stroke-linecap="round" stroke-linejoin="round"/>
</svg>
