<svg width="29" height="29" viewBox="0 0 29 29" fill="none" xmlns="http://www.w3.org/2000/svg">
<path d="M27.8008 22.9647C26.9169 22.2244 26.143 21.3758 25.5 20.4416C24.798 19.1522 24.3773 17.744 24.2625 16.2997V12.0458C24.2686 9.7773 23.3926 7.5848 21.7992 5.88022C20.2058 4.17565 18.0046 3.07635 15.6092 2.78886V1.67803C15.6092 1.37314 15.4802 1.08074 15.2507 0.865148C15.0212 0.649559 14.71 0.528442 14.3854 0.528442C14.0609 0.528442 13.7496 0.649559 13.5201 0.865148C13.2906 1.08074 13.1617 1.37314 13.1617 1.67803V2.80608C10.7877 3.1143 8.61314 4.22025 7.04066 5.91909C5.46817 7.61793 4.60434 9.79455 4.60917 12.0458V16.2997C4.49436 17.744 4.07363 19.1522 3.37167 20.4416C2.73998 21.3737 1.97852 22.2222 1.1075 22.9647C1.00972 23.0454 0.931359 23.1447 0.87762 23.2561C0.823881 23.3674 0.796002 23.4883 0.795837 23.6105V24.7816C0.795837 25.01 0.892414 25.229 1.06432 25.3905C1.23623 25.552 1.46939 25.6427 1.7125 25.6427H27.1958C27.439 25.6427 27.6721 25.552 27.844 25.3905C28.0159 25.229 28.1125 25.01 28.1125 24.7816V23.6105C28.1123 23.4883 28.0845 23.3674 28.0307 23.2561C27.977 23.1447 27.8986 23.0454 27.8008 22.9647ZM2.7025 23.9205C3.55538 23.1466 4.3063 22.2793 4.93917 21.3372C5.8234 19.7799 6.33932 18.0615 6.45167 16.2997V12.0458C6.41532 11.0366 6.59552 10.0309 6.98155 9.08846C7.36757 8.14605 7.95153 7.28626 8.69865 6.56027C9.44576 5.83428 10.3408 5.25695 11.3303 4.86265C12.3199 4.46835 13.3838 4.26515 14.4588 4.26515C15.5337 4.26515 16.5976 4.46835 17.5872 4.86265C18.5768 5.25695 19.4717 5.83428 20.2189 6.56027C20.966 7.28626 21.5499 8.14605 21.936 9.08846C22.322 10.0309 22.5022 11.0366 22.4658 12.0458V16.2997C22.5782 18.0615 23.0941 19.7799 23.9783 21.3372C24.6112 22.2793 25.3621 23.1466 26.215 23.9205H2.7025Z" fill="#404040"/>
<path d="M14.5 28.5189C15.0774 28.5064 15.6316 28.3025 16.0644 27.9431C16.4972 27.5838 16.7808 27.0923 16.865 26.5555H12.0433C12.1299 27.1069 12.4268 27.61 12.8787 27.9711C13.3306 28.3323 13.9068 28.5269 14.5 28.5189Z" fill="#404040"/>
</svg>
