<svg width="60" height="60" viewBox="0 0 60 60" fill="none" xmlns="http://www.w3.org/2000/svg">
<rect x="0.2" y="0.2" width="59.6" height="59.6" rx="0.8" fill="#F4FEFF" stroke="#F4FEFF" stroke-width="0.4"/>
<path d="M33.375 23.25H41.25V25.5H33.375V23.25Z" fill="#B3ACAC"/>
<path d="M33.375 28.875H41.25V31.125H33.375V28.875Z" fill="#B3ACAC"/>
<path d="M33.375 34.5H41.25V36.75H33.375V34.5Z" fill="#B3ACAC"/>
<path d="M18.75 23.25H26.625V25.5H18.75V23.25Z" fill="#B3ACAC"/>
<path d="M18.75 28.875H26.625V31.125H18.75V28.875Z" fill="#B3ACAC"/>
<path d="M18.75 34.5H26.625V36.75H18.75V34.5Z" fill="#B3ACAC"/>
<path d="M43.5 17.625H16.5C15.9034 17.6256 15.3315 17.8628 14.9097 18.2847C14.4878 18.7065 14.2506 19.2784 14.25 19.875V40.125C14.2506 40.7216 14.4878 41.2935 14.9097 41.7153C15.3315 42.1372 15.9034 42.3744 16.5 42.375H43.5C44.0966 42.3744 44.6685 42.1372 45.0903 41.7153C45.5122 41.2935 45.7494 40.7216 45.75 40.125V19.875C45.7494 19.2784 45.5122 18.7065 45.0903 18.2847C44.6685 17.8628 44.0966 17.6256 43.5 17.625ZM16.5 19.875H28.875V40.125H16.5V19.875ZM31.125 40.125V19.875H43.5V40.125H31.125Z" fill="#88ECFA"/>
</svg>
