<svg width="28" height="28" viewBox="0 0 28 28" fill="none" xmlns="http://www.w3.org/2000/svg">
<path d="M26.6273 7.95422C28.1266 11.0858 28.4089 14.6628 27.4191 17.9908C26.4294 21.3187 24.2384 24.1602 21.2714 25.9635C18.3044 27.7668 14.7732 28.4033 11.3634 27.7494C7.95347 27.0955 4.90821 25.1979 2.81881 22.425C0.729403 19.652 -0.25507 16.2016 0.0565188 12.7436C0.368108 9.28558 1.95353 6.06672 4.50497 3.71194C7.05642 1.35716 10.3918 0.0344694 13.8637 0.000664292C17.3355 -0.0331408 20.6961 1.22435 23.2929 3.529L26.5855 0.236601C26.7402 0.0843599 26.9489 -0.000554181 27.166 0.000355327C27.3831 0.00126483 27.591 0.0879243 27.7445 0.241457C27.898 0.39499 27.9846 0.602957 27.9855 0.820058C27.9864 1.03716 27.9014 1.2458 27.7491 1.40055L19.2373 9.91232L19.2372 9.91259H19.2369L14.5817 14.5678C14.4267 14.7187 14.2185 14.8024 14.0021 14.801C13.7858 14.7995 13.5788 14.7129 13.4258 14.5599C13.2729 14.4069 13.1863 14.1999 13.1848 13.9836C13.1834 13.7672 13.2672 13.559 13.418 13.404L17.4492 9.37287C16.3989 8.58783 15.1122 8.18466 13.8017 8.23C12.4912 8.27534 11.2354 8.76646 10.2418 9.62221C9.2483 10.478 8.57648 11.6471 8.33742 12.9364C8.09836 14.2257 8.30637 15.5579 8.92708 16.713C9.54778 17.8681 10.544 18.7768 11.7511 19.2889C12.9583 19.801 14.304 19.886 15.5659 19.5297C16.8279 19.1734 17.9304 18.3972 18.6915 17.3293C19.4525 16.2615 19.8263 14.9659 19.7513 13.6568C19.7439 13.5482 19.7582 13.4393 19.7932 13.3362C19.8283 13.2332 19.8834 13.1381 19.9554 13.0565C20.0274 12.975 20.1149 12.9085 20.2128 12.8609C20.3107 12.8134 20.4171 12.7857 20.5257 12.7795C20.6344 12.7734 20.7432 12.7888 20.8458 12.825C20.9485 12.8612 21.0429 12.9173 21.1237 12.9902C21.2045 13.0631 21.2701 13.1514 21.3165 13.2498C21.363 13.3482 21.3895 13.4548 21.3945 13.5635C21.4916 15.2573 21.0043 16.933 20.0142 18.3106C19.024 19.6882 17.591 20.6842 15.9547 21.132C14.3183 21.5799 12.5778 21.4525 11.0242 20.7711C9.47051 20.0897 8.19782 18.8956 7.41887 17.3885C6.63991 15.8814 6.4019 14.1526 6.74462 12.491C7.08734 10.8295 7.99003 9.33595 9.30177 8.26008C10.6135 7.18421 12.2548 6.59122 13.9513 6.58023C15.6478 6.56925 17.2966 7.14094 18.6222 8.19973L22.1255 4.69638C19.825 2.69027 16.862 1.60906 13.8101 1.66208C10.7582 1.71509 7.83451 2.89855 5.60504 4.98335C3.37558 7.06815 1.99892 9.90599 1.74158 12.9475C1.48424 15.989 2.36453 19.0178 4.21202 21.4475C6.05951 23.8773 8.74279 25.5351 11.7424 26.1002C14.742 26.6652 17.8446 26.0972 20.4494 24.5061C23.0543 22.9151 24.9762 20.4141 25.8431 17.4874C26.71 14.5607 26.4601 11.4165 25.142 8.66347C25.0494 8.46673 25.0384 8.24134 25.1115 8.03655C25.1846 7.83175 25.3357 7.6642 25.5319 7.57048C25.7281 7.47676 25.9534 7.4645 26.1587 7.53638C26.3639 7.60825 26.5323 7.75842 26.6272 7.95408L26.6273 7.95422Z" fill="#23A1F5"/>
</svg>
