<svg width="36" height="36" viewBox="0 0 36 36" fill="none" xmlns="http://www.w3.org/2000/svg">
<path d="M12 4.5H6C5.60218 4.5 5.22064 4.65804 4.93934 4.93934C4.65804 5.22064 4.5 5.60218 4.5 6V12" stroke="#FF9A62" stroke-width="4" stroke-linecap="round" stroke-linejoin="round"/>
<path d="M12 31.5H6C5.60218 31.5 5.22064 31.342 4.93934 31.0607C4.65804 30.7794 4.5 30.3978 4.5 30V24" stroke="#FF9A62" stroke-width="4" stroke-linecap="round" stroke-linejoin="round"/>
<path d="M24 31.5H30C30.3978 31.5 30.7794 31.342 31.0607 31.0607C31.342 30.7794 31.5 30.3978 31.5 30V24" stroke="#FF9A62" stroke-width="4" stroke-linecap="round" stroke-linejoin="round"/>
<path d="M24 4.5H30C30.3978 4.5 30.7794 4.65804 31.0607 4.93934C31.342 5.22064 31.5 5.60218 31.5 6V12" stroke="#FF9A62" stroke-width="4" stroke-linecap="round" stroke-linejoin="round"/>
<path d="M18 23.25C18.6894 23.25 19.3721 23.1142 20.0091 22.8504C20.646 22.5865 21.2248 22.1998 21.7123 21.7123C22.1998 21.2248 22.5865 20.646 22.8504 20.0091C23.1142 19.3721 23.25 18.6894 23.25 18C23.25 17.3106 23.1142 16.6279 22.8504 15.9909C22.5865 15.354 22.1998 14.7752 21.7123 14.2877C21.2248 13.8002 20.646 13.4135 20.0091 13.1496C19.3721 12.8858 18.6894 12.75 18 12.75C16.6076 12.75 15.2723 13.3031 14.2877 14.2877C13.3031 15.2723 12.75 16.6076 12.75 18C12.75 19.3924 13.3031 20.7277 14.2877 21.7123C15.2723 22.6969 16.6076 23.25 18 23.25V23.25Z" stroke="#FF9A62" stroke-width="4" stroke-miterlimit="10" stroke-linecap="round" stroke-linejoin="round"/>
<path d="M18 12.75V9.75" stroke="#FF9A62" stroke-width="4" stroke-miterlimit="10" stroke-linecap="round" stroke-linejoin="round"/>
<path d="M18 26.25V23.25" stroke="#FF9A62" stroke-width="4" stroke-miterlimit="10" stroke-linecap="round" stroke-linejoin="round"/>
<path d="M26.25 18H23.25" stroke="#FF9A62" stroke-width="4" stroke-miterlimit="10" stroke-linecap="round" stroke-linejoin="round"/>
<path d="M12.75 18H9.75" stroke="#FF9A62" stroke-width="4" stroke-miterlimit="10" stroke-linecap="round" stroke-linejoin="round"/>
<path d="M18 19.5C18.3978 19.5 18.7794 19.342 19.0607 19.0607C19.342 18.7794 19.5 18.3978 19.5 18C19.5 17.6022 19.342 17.2206 19.0607 16.9393C18.7794 16.658 18.3978 16.5 18 16.5C17.6022 16.5 17.2206 16.658 16.9393 16.9393C16.658 17.2206 16.5 17.6022 16.5 18C16.5 18.3978 16.658 18.7794 16.9393 19.0607C17.2206 19.342 17.6022 19.5 18 19.5V19.5Z" fill="#FF9A62"/>
</svg>
